<svg width="219" height="44" viewBox="0 0 219 44" fill="none" xmlns="http://www.w3.org/2000/svg">
<path d="M130.427 7.86387L110.213 35.9183L107.4 34.4149L127.574 6.40283L130.427 7.86387Z" fill="#F7F2EB"/>
<path d="M33.8428 20.9394C32.0713 20.5157 30.6908 19.3689 30.6908 17.136C33.857 18.2077 41.4686 17.8502 45.2617 16.4587C45.2877 14.8344 45.088 13.3256 44.4713 11.8088C43.8548 10.2845 42.8042 8.87566 41.3454 7.91338C39.6781 6.82028 37.5854 6.35077 35.5189 6.2737C35.2929 6.2583 35.0673 6.2583 34.8328 6.2583C32.1408 6.26619 29.3883 6.95106 27.3997 8.54488C25.2723 10.2537 24.2215 12.8403 24.1087 15.381C23.9437 18.7761 25.5935 22.4557 29.0582 24.1804C31.7502 25.5276 35.3363 25.8276 38.3062 25.104C41.2933 24.3728 43.9763 22.2404 44.8968 19.6151H38.532C37.4553 21.101 35.3192 21.2935 33.8428 20.9394ZM34.8761 10.3541C37.3249 10.3541 38.7578 11.9937 38.8271 14.0646C36.6476 14.457 32.7661 14.3341 30.8905 13.8875C31.0902 11.7088 32.6185 10.3541 34.8761 10.3541Z" fill="#F7F2EB"/>
<path d="M69.8136 11.3529V17.8428C69.8136 19.4058 70.986 20.2986 72.714 20.2986C73.261 20.2986 73.8774 20.2448 74.7112 19.9674V24.9792C73.5737 25.3025 72.3752 25.395 71.3854 25.395C66.3142 25.395 62.9364 22.7622 62.9364 18.913V11.3529H59.5584V6.71849H59.6453C61.7727 6.71849 62.9364 5.75617 62.9364 3.86241V1.4375H69.8136V6.71849H74.7112V11.3529H69.8136Z" fill="#F7F2EB"/>
<path d="M114.357 6.50244V12.7063C107.601 12.0644 105.791 14.0254 105.791 18.5889V24.9707H98.9144V6.71659H105.791V11.7079C106.998 7.96429 109.732 6.50244 114.357 6.50244Z" fill="#F7F2EB"/>
<path d="M54.8521 11.3529V17.8428C54.8521 19.4133 56.0155 20.2986 57.7435 20.2986C58.2994 20.2986 58.9159 20.2448 59.7581 19.9599V24.9792C58.6205 25.3025 57.4137 25.4025 56.4236 25.4025C51.3526 25.4025 47.9746 22.7622 47.9746 18.913V11.3529H46.0469L45.5258 6.65682C47.115 6.42602 47.9746 5.48703 47.9746 3.86241V1.4375H54.852V6.71849H61.4079V11.3529H54.8521Z" fill="#F7F2EB"/>
<path d="M85.7493 20.9394C83.9778 20.5157 82.5973 19.3689 82.5973 17.136C85.7635 18.2077 93.3751 17.8502 97.1682 16.4587C97.1942 14.8344 96.9945 13.3256 96.3778 11.8088C95.7613 10.2845 94.7107 8.87566 93.2519 7.91338C91.5845 6.82028 89.4919 6.35077 87.4254 6.2737C87.1994 6.2583 86.9738 6.2583 86.7393 6.2583C84.0473 6.26619 81.2948 6.95106 79.3062 8.54488C77.1788 10.2537 76.1279 12.8403 76.0151 15.381C75.8502 18.7761 77.5 22.4557 80.9647 24.1804C83.6567 25.5276 87.2428 25.8276 90.2127 25.104C93.1998 24.3728 95.8828 22.2404 96.8033 19.6151H90.4385C89.3617 21.101 87.2257 21.2935 85.7493 20.9394ZM86.7826 10.3541C89.2314 10.3541 90.6643 11.9937 90.7336 14.0646C88.5541 14.457 84.6726 14.3341 82.797 13.8875C82.9967 11.7088 84.525 10.3541 86.7826 10.3541Z" fill="#F7F2EB"/>
<path d="M149.523 20.6479L145.381 20.7545C146.226 21.6815 146.668 22.8226 146.668 24.106C146.668 27.9924 142.445 30.5235 136.694 30.5235C135.568 30.5235 134.523 30.4164 133.558 30.2384C133.236 30.5949 133.075 30.9513 133.075 31.272C133.075 31.8069 133.558 32.0924 134.563 32.0924H140.998C145.783 32.0924 148.156 34.5521 148.156 37.4045C148.156 41.3618 143.25 43.9999 136.252 43.9999C129.898 43.9999 125.636 41.968 125.636 38.9729C125.636 37.0837 127.204 35.6576 130.059 35.2297C128.37 34.7662 127.526 33.6965 127.526 32.3774C127.526 30.8799 128.652 29.8458 130.059 29.0259C128.048 27.921 126.882 26.2093 126.882 24.106C126.882 20.22 130.904 17.7242 136.694 17.7242C138.906 17.7242 140.917 18.1163 142.526 18.7939C144.014 16.9756 146.266 15.4424 149.523 15.4424L149.523 20.6479ZM132.231 38.1887C132.231 39.4012 133.92 40.2211 136.614 40.2211C139.228 40.2211 141.199 39.2942 141.199 38.0107C141.199 37.1547 140.394 36.5489 138.866 36.5489H134.885C133.035 36.5489 132.231 37.2261 132.231 38.1887ZM139.631 24.106C139.631 22.1449 138.464 21.0757 136.614 21.0757C134.845 21.0757 133.678 22.1449 133.678 24.106C133.678 26.0313 134.805 27.172 136.614 27.172C138.464 27.172 139.631 26.0313 139.631 24.106Z" fill="#F7F2EB"/>
<path d="M171.167 27.279C171.167 33.0545 166.904 36.9053 160.228 36.9053C153.513 36.9053 149.25 33.0546 149.25 27.279C149.25 21.5391 153.513 17.7241 160.228 17.7241C166.904 17.7241 171.167 21.5391 171.167 27.279ZM155.926 27.279C155.926 30.0956 157.454 32.1633 160.228 32.1633C162.963 32.1633 164.491 30.0956 164.491 27.279C164.491 24.4981 162.963 22.4661 160.228 22.4661C157.454 22.4661 155.926 24.498 155.926 27.279Z" fill="#F7F2EB"/>
<path d="M194.504 27.279C194.504 33.0545 190.241 36.9053 183.566 36.9053C176.85 36.9053 172.587 33.0546 172.587 27.279C172.587 21.5391 176.85 17.7241 183.566 17.7241C190.241 17.7241 194.504 21.5391 194.504 27.279ZM179.263 27.279C179.263 30.0956 180.791 32.1633 183.566 32.1633C186.3 32.1633 187.828 30.0956 187.828 27.279C187.828 24.4981 186.3 22.4661 183.566 22.4661C180.791 22.4661 179.263 24.498 179.263 27.279Z" fill="#F7F2EB"/>
<path d="M13.0636 6.25552C10.4428 6.25552 7.86244 7.3279 6.93516 9.07944H6.89473V0.538899L0 0V25.022H6.89469V18.2394C6.89469 21.4399 8.61083 25.4867 13.0636 25.4867C18.8698 25.4867 22.3776 21.5905 22.3776 15.7639C22.3776 10.1518 18.8698 6.25552 13.0636 6.25552ZM11.1686 20.6611C8.62851 20.6611 6.73347 18.9453 6.73347 15.9069V15.6924C6.73347 12.8327 8.62847 11.0812 11.1686 11.0812C13.6684 11.0812 15.6039 12.8327 15.6039 15.7639C15.6039 18.8738 13.6684 20.6611 11.1686 20.6611Z" fill="#F7F2EB"/>
<path d="M211.672 11.9891V20.5184H211.591C210.665 18.7691 207.927 17.698 205.309 17.698C199.51 17.698 196.007 21.5895 196.007 27.1947C196.007 33.014 199.51 36.9056 205.309 36.9056C209.478 36.9056 211.672 33.3734 211.672 29.6685V36.4414H218.558V11.4502L211.672 11.9891ZM211.672 27.3375C211.672 30.3721 209.779 32.0858 207.242 32.0858C204.746 32.0858 202.772 30.3007 202.772 27.1946C202.772 24.2671 204.746 22.5177 207.242 22.5177C209.739 22.5177 211.632 24.2671 211.672 27.1232V27.3375Z" fill="#F7F2EB"/>
</svg>
