<?xml version="1.0" encoding="UTF-8"?>
<svg id="Layer_1" data-name="Layer 1" xmlns="http://www.w3.org/2000/svg" viewBox="0 0 648 675.15">
  <defs>
    <style>
      .cls-1 {
        fill: #d9d9d9;
      }

      .cls-1, .cls-2 {
        stroke-width: 0px;
      }

      .cls-2 {
        fill: none;
      }
    </style>
  </defs>
  <path class="cls-2" d="M390.15,132.57c0,37.69-20.85,70.51-51.65,87.56,30.8,17.04,51.65,49.86,51.65,87.55,0-37.69,20.85-70.51,51.65-87.55-30.8-17.05-51.65-49.87-51.65-87.56ZM390.15,132.57c0,37.69-20.85,70.51-51.65,87.56,30.8,17.04,51.65,49.86,51.65,87.55,0-37.69,20.85-70.51,51.65-87.55-30.8-17.05-51.65-49.87-51.65-87.56Z"/>
  <path class="cls-1" d="M648,250.02V100c0-55.23-44.77-100-100-100h-124c-55.23,0-100,44.77-100,100C324,44.77,279.23,0,224,0h-124C44.77,0,0,44.77,0,100v150.02c0,37.69,20.85,70.51,51.65,87.56C20.85,354.62,0,387.44,0,425.13v150.02c0,55.23,44.77,100,100,100h124c55.23,0,100-44.77,100-100,0,55.23,44.77,100,100,100h124c55.23,0,100-44.77,100-100v-150.02c0-37.69-20.85-70.51-51.65-87.55,30.8-17.05,51.65-49.87,51.65-87.56ZM324,425.13c0-37.69-20.85-70.51-51.65-87.55,30.8-17.05,51.65-49.87,51.65-87.56,0,37.69,20.85,70.51,51.65,87.56-30.8,17.04-51.65,49.86-51.65,87.55Z"/>
</svg>