<?xml version="1.0" encoding="UTF-8"?>
<svg id="Layer_1" data-name="Layer 1" xmlns="http://www.w3.org/2000/svg" viewBox="0 0 112 112">
  <defs>
    <style>
      .cls-1 {
        fill: #261416;
        stroke-width: 0px;
      }
    </style>
  </defs>
  <path class="cls-1" d="M46.66,68.37c-.37,1.51-1.9,2.5-3.58,2.5h-8.44v-6.14h8.65c2.11,0,3.74,1.7,3.37,3.64Z"/>
  <path class="cls-1" d="M75.18,41.41c-2.11,0-3.79,1.42-3.79,3.16s1.68,3.17,3.79,3.17,3.8-1.42,3.8-3.17-1.69-3.16-3.8-3.16ZM75.18,41.41c-2.11,0-3.79,1.42-3.79,3.16s1.68,3.17,3.79,3.17,3.8-1.42,3.8-3.17-1.69-3.16-3.8-3.16ZM56,0C25.07,0,0,25.07,0,56s25.07,56,56,56,56-25.07,56-56S86.92,0,56,0ZM34.7,34.52v7.84h.31c.58-3.5,1.16-8.36,6.64-8.36s5.96,4.39,5.91,8.36h.31c.74-3.12,1.11-8.36,6.96-8.36s6.01,5.1,6.01,8.73v11.95h-9.75c0-7.08-.05-7.98-.05-9.49,0-2.6-3.48-2.6-3.48,0,0,.75.05,9.02.05,9.49h-9.49v-9.49c0-2.6-3.42-2.6-3.42,0,0,.71.05,1.7.05,9.49h-9.7l-.05-20.16h9.7ZM44.24,78c-3.59,0-13.87-.1-13.87-.1h-5.37v-20.15h5.37s10.65-.15,13.87-.15c7.27,0,11.28,4.91,11.38,9.97.11,5.24-3.95,10.43-11.38,10.43ZM77.82,77.9l-1.48-2.97h-11.23l-1.47,2.97h-10.07l9.96-20.15h14.34l10.02,20.15h-10.07ZM75.23,55.1c-7.74,0-12.75-4.62-12.75-10.53s5.11-10.57,12.7-10.57,12.81,4.72,12.81,10.57-5.01,10.53-12.76,10.53ZM75.18,41.41c-2.11,0-3.79,1.42-3.79,3.16s1.68,3.17,3.79,3.17,3.8-1.42,3.8-3.17-1.69-3.16-3.8-3.16ZM70.28,64.45l-2.32,4.72h5.54l-2.32-4.72h-.9Z"/>
</svg>