<?xml version="1.0" encoding="UTF-8"?>
<svg id="Layer_1" data-name="Layer 1" xmlns="http://www.w3.org/2000/svg" viewBox="0 0 112 112">
  <defs>
    <style>
      .cls-1 {
        fill: #261416;
        stroke-width: 0px;
      }
    </style>
  </defs>
  <path class="cls-1" d="M56,0C25.07,0,0,25.07,0,56s25.07,56,56,56,56-25.07,56-56S86.93,0,56,0ZM28.87,48.9c-4.99-.18-6.9-2.64-6.86-8.9,0-.78.02-1.56-.01-2.35-.06-1.86.84-2.71,2.69-2.64,1.31.05,2.61-.03,3.91.03,4.38.2,6.79,2.68,6.95,7.12.17,4.65-2.06,6.9-6.68,6.74ZM75.79,78.59c-6.14.06-6.14.14-6.15-6.08,0-5.64.03-11.29-.01-16.94-.07-6.79-4.5-11.42-10.87-11.44-6.55-.02-11.14,4.56-11.25,11.43-.1,6.51-.01,13.03-.05,19.55-.01,3.15-.28,3.39-3.45,3.45-3.51.06-5.26-1.7-5.26-5.29.01-2.95.01-5.91.01-8.86s-.02-5.91,0-8.86c.08-11.39,8.69-20.41,19.62-20.55,11.01-.14,20.17,8.86,20.38,20.16.13,6.78-.02,13.55.06,20.33.02,2.21-.76,3.09-3.03,3.11Z"/>
</svg>