<?xml version="1.0" encoding="UTF-8"?>
<svg id="Layer_1" data-name="Layer 1" xmlns="http://www.w3.org/2000/svg" viewBox="0 0 112 112">
  <defs>
    <style>
      .cls-1 {
        fill: #261416;
        stroke-width: 0px;
      }
    </style>
  </defs>
  <path class="cls-1" d="M41.81,47.88h-4.73v6.46h4.73c2.39,0,2.83-1.17,2.83-2.96v-.82c0-1.76-.44-2.68-2.83-2.68Z"/>
  <path class="cls-1" d="M59.95,58.47v6.02h5.42c2.4,0,3.18-.35,3.18-2.71v-.79l-2.58-2.52h-6.02Z"/>
  <path class="cls-1" d="M68.08,51.98v-1.2c0-2.24-.6-2.9-2.87-2.9h-5.23v6.18h5.99l2.11-2.08Z"/>
  <path class="cls-1" d="M17.51,47.57c-2.99,0-4.56,1.13-4.56,4.98v7.18c0,3.84,1.57,5.04,4.56,5.04s4.57-1.13,4.57-5.04v-7.18c0-3.84-1.57-4.98-4.57-4.98Z"/>
  <path class="cls-1" d="M56,0C25.07,0,0,25.07,0,56s25.07,56,56,56,56-25.07,56-56S86.93,0,56,0ZM27.09,61.4c0,5.95-4.6,7.97-9.54,7.97s-9.55-2.02-9.55-7.97v-10.43c-.03-5.95,4.63-7.97,9.51-7.97s9.55,2.02,9.55,7.97h.03v10.43ZM46.31,68.96l-5.17-10.11h-4.09v10.11h-4.98v-25.55h12.1c3.15,0,5.45,2.52,5.45,5.67v4.03c0,2.33-1.29,4.38-3.25,5.26l5.39,10.59h-5.45ZM73.53,63.32c0,3.15-2.65,5.67-5.76,5.67h-12.73v-25.58h12.1c3.93,0,5.92,2.52,5.92,5.67v3.15h-.03c0,.31-.03.79-.22,1.1l-2.9,2.87,3.4,3.37c.19.32.22.79.22,1.1v2.65ZM83.39,68.96h-4.98v-25.55h4.98v25.55ZM97.95,47.91v21.05h-4.98v-21.05h-6.58v-4.51h18.14v4.51h-6.58Z"/>
</svg>