<?xml version="1.0" encoding="UTF-8"?>
<svg id="Layer_1" data-name="Layer 1" xmlns="http://www.w3.org/2000/svg" viewBox="0 0 112 112">
  <defs>
    <style>
      .cls-1 {
        fill: #261416;
        stroke-width: 0px;
      }
    </style>
  </defs>
  <path class="cls-1" d="M24.81,72.4c0-1.11-.87-1.99-1.94-1.99h-2.75c-.08,0-.15.07-.15.15v3.67c0,.08.07.15.15.15h0s2.75,0,2.75,0c1.07,0,1.94-.88,1.94-1.99Z"/>
  <path class="cls-1" d="M56,0C25.07,0,0,25.07,0,56s25.07,56,56,56,56-25.07,56-56S86.93,0,56,0ZM25.78,79.17h-.75c-.06,0-.11-.03-.13-.07l-2.18-3.72s-.08-.07-.13-.07h-2.47c-.08,0-.15.07-.15.15v3.56c0,.08-.07.15-.15.15h-.66c-.08,0-.15-.07-.15-.15v-9.37c0-.08.07-.15.15-.15h3.63c1.54,0,2.88,1.16,2.98,2.7.09,1.33-.73,2.5-1.91,2.92-.09.03-.12.14-.07.22l2.13,3.6c.06.1-.01.23-.13.23ZM35.7,79.17h-.69c-.06,0-.12-.04-.14-.1l-.82-2.18c-.02-.06-.08-.1-.14-.1h-4.38c-.07,0-.12.04-.14.1l-.82,2.18c-.02.06-.08.1-.14.1h-.69c-.11,0-.18-.11-.14-.21l1.15-2.99c.02-.06.08-.1.14-.1h4.82l-1.21-3.14-.77-2.05v.02s-.4-1.02-.4-1.02c-.04-.1.04-.21.14-.21h.65c.07,0,.12.04.14.1h0l3.6,9.37c.04.1-.04.21-.14.21ZM39.18,79.02c0,.08-.07.15-.15.15h-.66c-.08,0-.15-.07-.15-.15v-9.37c0-.08.07-.15.15-.15h.66c.08,0,.15.07.15.15v9.37ZM49.62,79.02c0,.08-.07.15-.15.15h-.6c-.05,0-.1-.02-.12-.06l-5.07-7.4c-.08-.12-.28-.06-.28.09v7.23c0,.08-.07.15-.15.15h-.66c-.08,0-.15-.07-.15-.15v-9.37c0-.08.07-.15.15-.15h.6c.05,0,.1.02.12.06l5.07,7.4c.08.12.28.06.28-.09v-7.23c0-.08.07-.15.15-.15h.66c.08,0,.15.07.15.15v9.37ZM55.77,79.33c-1.73,0-3.02-.85-3.55-2.24-.02-.07,0-.15.07-.18l.55-.32c.08-.05.19,0,.22.08.38,1.06,1.25,1.73,2.72,1.73s2.28-.71,2.28-1.74c0-1.12-.96-1.48-2.38-1.95-1.58-.52-3.1-1.02-3.1-2.72s1.44-2.65,2.97-2.65,2.61.87,3.13,1.96c.04.07,0,.16-.07.2l-.54.3c-.08.05-.18.01-.21-.07-.38-.8-1.15-1.45-2.31-1.45s-2.01.62-2.01,1.67.83,1.38,2.14,1.81h0c1.76.57,3.33,1.07,3.33,2.87,0,1.66-1.33,2.71-3.26,2.71ZM67.47,70.25c0,.08-.07.15-.15.15h-2.67c-.08,0-.15.07-.15.15v8.46c0,.08-.07.15-.15.15h-.66c-.08,0-.15-.07-.15-.15v-8.46c0-.08-.07-.15-.15-.15h-2.67c-.08,0-.15-.07-.15-.15v-.61c0-.08.07-.15.15-.15h6.6c.08,0,.15.07.15.15v.61ZM70.86,79.02c0,.08-.07.15-.15.15h-.66c-.08,0-.15-.07-.15-.15v-9.37c0-.08.07-.15.15-.15h.66c.08,0,.15.07.15.15v9.37ZM71.15,50.62c-.67,1.33-2.28,3.7-2.35,3.8l-5.45,7.64c-.17.23-.43.37-.71.37h-.04c-.3-.01-.56-.18-.71-.43l-16.81-29.18c-.09-.16-.32-.17-.42-.02l-4.43,6.21s-1.6,2.36-2.23,3.59c-.51,1.02-.78,2.19-.78,3.39,0,4.27,3.47,7.75,7.74,7.75,2.27,0,4.43-1,5.9-2.73.35-.41.99-.42,1.35.03.26.33.23.81-.05,1.13-1.81,2.11-4.43,3.32-7.21,3.32-5.23,0-9.49-4.26-9.49-9.49,0-1.47.34-2.92.97-4.18.67-1.33,2.28-3.7,2.35-3.8l5.45-7.64c.17-.24.46-.38.75-.36.3.01.56.18.71.43l16.81,29.18c.09.16.31.17.42.02l4.43-6.21s1.6-2.36,2.23-3.59c.51-1.02.79-2.19.79-3.39,0-4.27-3.48-7.75-7.75-7.75-2.18,0-4.27.92-5.73,2.54-.37.4-1.01.38-1.35-.07-.25-.34-.21-.81.08-1.12,1.8-1.96,4.34-3.08,7-3.08h0c5.23,0,9.49,4.25,9.49,9.48,0,1.47-.34,2.92-.98,4.18ZM78.62,78.4c1.4,0,2.63-.71,3.26-1.8.04-.07.13-.1.21-.06l.59.33h0c.08.05.1.14.06.22-.81,1.36-2.36,2.26-4.11,2.26-2.97,0-5.07-2.24-5.07-5s2.1-5,5.07-5c1.74,0,3.29.88,4.11,2.24.05.07.02.17-.05.21l-.59.34c-.08.04-.17.01-.21-.06-.62-1.09-1.86-1.8-3.26-1.8-2.45,0-4.1,1.81-4.1,4.06s1.66,4.06,4.1,4.06ZM91.85,79.18h-.85s-.08-.02-.11-.05l-4.22-4.37c-.1-.1-.26-.03-.26.11v4.15c0,.08-.07.15-.15.15h-.66c-.08,0-.15-.07-.15-.15v-9.37c0-.08.07-.15.15-.15h.66c.08,0,.15.07.15.15v3.9c0,.13.17.2.26.11l4.09-4.11s.07-.05.11-.05h.84c.14,0,.21.16.11.26l-4.28,4.33c-.05.06-.05.15,0,.21l4.43,4.61h0c.09.1.02.26-.11.26Z"/>
</svg>