<?xml version="1.0" encoding="UTF-8"?>
<svg id="Layer_1" data-name="Layer 1" xmlns="http://www.w3.org/2000/svg" viewBox="0 0 62 62">
  <defs>
    <style>
      .cls-1 {
        fill: #e77a33;
      }

      .cls-1, .cls-2, .cls-3 {
        stroke: #261416;
      }

      .cls-2 {
        fill: none;
        stroke-linecap: round;
        stroke-width: 2px;
      }

      .cls-2, .cls-3 {
        stroke-linejoin: round;
      }

      .cls-3 {
        fill: #dcda84;
      }
    </style>
  </defs>
  <path class="cls-2" d="M1.64,7.32h58.72v36.54H1.64V7.32Z"/>
  <path class="cls-2" d="M22.98,44.66h15.56l3.61,10.02h-22.77l3.61-10.02Z"/>
  <path class="cls-3" d="M26.11,12.8c-.07-.21-.26-.34-.48-.34s-.41.14-.48.34l-1.8,5.53h-5.84c-.22,0-.41.14-.48.35-.07.21,0,.43.18.56l4.72,3.42-1.8,5.53c-.07.21,0,.43.18.56.17.13.41.13.59,0l4.72-3.42,4.72,3.42c.18.13.41.13.59,0,.17-.13.25-.35.18-.56l-1.8-5.53,4.72-3.42c.18-.13.25-.35.18-.56-.07-.21-.26-.35-.48-.35h-5.84l-1.8-5.53Z"/>
  <path class="cls-1" d="M44.53,30.73c0,4.42-3.6,8-8.04,8s-8.04-3.58-8.04-8,3.6-8,8.04-8,8.04,3.58,8.04,8Z"/>
</svg>