<?xml version="1.0" encoding="UTF-8"?>
<svg id="Layer_1" data-name="Layer 1" xmlns="http://www.w3.org/2000/svg" viewBox="0 0 62 62">
  <defs>
    <style>
      .cls-1 {
        fill: #dcda84;
      }

      .cls-1, .cls-2 {
        stroke: #261416;
        stroke-linecap: round;
        stroke-linejoin: round;
        stroke-width: 2px;
      }

      .cls-3 {
        fill: #261416;
        stroke-width: 0px;
      }

      .cls-2 {
        fill: none;
      }
    </style>
  </defs>
  <path class="cls-1" d="M12.38,29.3l10.93-2.69,3.46,14.03-10.93,2.69-3.46-14.03Z"/>
  <path class="cls-2" d="M23.31,26.6l16.54-9.86,6.15,24.93-19.23-1.05"/>
  <path class="cls-2" d="M48.53,22.04l1.99-.49"/>
  <path class="cls-2" d="M49.07,28.52l4.97-1.23"/>
  <path class="cls-2" d="M51.6,34.51l1.99-.49"/>
  <path class="cls-3" d="M58.94,43.21c.21-.51-.04-1.1-.55-1.3-.51-.21-1.1.04-1.3.55l1.85.75ZM9.21,49.06l4.93,10.44,6.58-9.49-11.51-.96ZM57.09,42.46c-1.56,3.84-7.47,10.52-22.34,12.42l.25,1.98c15.39-1.96,22.03-8.98,23.93-13.65l-1.85-.75ZM34.75,54.87c-7.68.98-13.62-.03-17.79-1.62l-.71,1.87c4.49,1.72,10.77,2.75,18.75,1.74l-.25-1.98Z"/>
  <path class="cls-3" d="M3.04,21.08c-.18.52.09,1.09.62,1.27.52.18,1.09-.09,1.27-.62l-1.89-.66ZM52.4,12.67l-5.46-10.18-6.08,9.82,11.54.36ZM4.93,21.73c1.36-3.91,6.91-10.89,21.67-13.55l-.35-1.97C10.98,8.97,4.7,16.31,3.04,21.08l1.89.66ZM26.6,8.18c7.62-1.38,13.61-.67,17.85.7l.62-1.9c-4.57-1.48-10.89-2.2-18.82-.77l.35,1.97Z"/>
</svg>