<?xml version="1.0" encoding="UTF-8"?>
<svg id="Layer_1" data-name="Layer 1" xmlns="http://www.w3.org/2000/svg" viewBox="0 0 62 62">
  <defs>
    <style>
      .cls-1 {
        stroke: #261416;
      }

      .cls-1, .cls-2 {
        fill: none;
        stroke-linecap: round;
        stroke-linejoin: round;
        stroke-width: 2px;
      }

      .cls-2 {
        stroke: #e77a33;
      }
    </style>
  </defs>
  <path class="cls-1" d="M7.76,11.25c0-1.93,1.56-3.49,3.49-3.49h39.5c1.93,0,3.49,1.56,3.49,3.49v39.5c0,1.93-1.56,3.49-3.49,3.49H11.25c-1.92,0-3.49-1.56-3.49-3.49V11.25Z"/>
  <path class="cls-2" d="M7.76,31h46.47"/>
  <path class="cls-2" d="M31,54.24V7.76"/>
  <path class="cls-1" d="M7.76,42.62v-23.24"/>
  <path class="cls-1" d="M54.24,42.62v-23.24"/>
  <path class="cls-1" d="M50.75,54.24H11.25"/>
  <path class="cls-1" d="M50.75,7.76H11.25"/>
  <path class="cls-2" d="M31,31s11.93-5.36,13.74-7.17c1.82-1.82,1.82-4.76,0-6.57s-4.76-1.81-6.57,0c-1.82,1.82-7.17,13.74-7.17,13.74ZM31,31s-11.93-5.36-13.74-7.17M31,31s-5.36-11.93-7.17-13.74M31,31s11.93,5.36,13.74,7.17M31,31s5.35,11.93,7.17,13.74M31,31s-11.93,5.36-13.74,7.17c-1.81,1.82-1.81,4.76,0,6.57,1.82,1.82,4.76,1.82,6.57,0,1.82-1.82,7.17-13.74,7.17-13.74Z"/>
</svg>