<?xml version="1.0" encoding="UTF-8"?>
<svg id="Layer_1" data-name="Layer 1" xmlns="http://www.w3.org/2000/svg" viewBox="0 0 1115 839.31">
  <defs>
    <style>
      .cls-1 {
        fill: #bcb4a1;
        stroke-width: 0px;
      }
    </style>
  </defs>
  <path class="cls-1" d="M621.54,0v396.72c-.48,8.14-.72,16.35-.72,24.61s.24,16.46.72,24.6v386.55c-27.6-2.84-54.4-8.37-80.14-16.32-28.77-8.88-56.22-20.78-81.97-35.33-127.12-71.81-212.93-208.18-212.93-364.59S324.7,135.88,442.37,61.83c30.64-19.29,63.95-34.71,99.26-45.58,25.67-7.91,52.39-13.42,79.91-16.25Z"/>
  <path class="cls-1" d="M1115,10.16v822.34c-24.52,4.48-49.78,6.81-75.59,6.81-69.16,0-134.41-16.75-191.89-46.42-7.39-3.8-14.64-7.83-21.76-12.06-37.19-22.08-70.66-49.75-99.26-81.86-60.65-68.1-99.33-156.14-104.96-253.04v-49.21c5.77-99.35,46.29-189.38,109.63-258.17,27.53-29.92,59.39-55.83,94.58-76.72,10.36-6.16,21.01-11.88,31.93-17.14,54.97-26.49,116.61-41.34,181.73-41.34,25.81,0,51.07,2.33,75.59,6.81Z"/>
  <path class="cls-1" d="M246.38,34.43v763.48c-11.54-5.19-22.8-10.89-33.75-17.08C90.55,711.92,6.54,583.48,0,434.91v-37.48C6.23,255.99,82.68,132.78,195.34,61.83c16.29-10.27,33.33-19.43,51.04-27.4Z"/>
</svg>