<?xml version="1.0" encoding="UTF-8"?>
<svg id="Layer_1" data-name="Layer 1" xmlns="http://www.w3.org/2000/svg" version="1.1" viewBox="0 0 655 682.3">
  <defs>
    <style>
      .cls-1 {
        fill: #bcb4a0;
      }

      .cls-1, .cls-2, .cls-3 {
        stroke-width: 0px;
      }

      .cls-2 {
        fill: #dcd98a;
      }

      .cls-3 {
        fill: #e77a33;
      }
    </style>
  </defs>
  <path class="cls-1" d="M655,0v682.3h-.5c-34.9,0-68.7-4.7-100.6-13.5h0c-16-4.4-31.5-9.8-46.5-16.2-125.6-53.3-213.1-172.7-213.1-311.5S381.8,83,507.3,29.7c15-6.4,30.5-11.8,46.5-16.2,31.9-8.8,65.7-13.5,100.6-13.5h.5Z"/>
  <path class="cls-2" d="M294.3,34.9v612.5c-118.8-55.4-200.7-171-201.3-304.8v-2.9c.6-133.8,82.5-249.4,201.3-304.8Z"/>
  <path class="cls-3" d="M93,112.4v457.5C35.2,509.4,0,429.2,0,341.1S35.2,172.9,93,112.4Z"/>
</svg>