<svg width="31" height="31" viewBox="0 0 31 31" fill="none" xmlns="http://www.w3.org/2000/svg">
<path d="M15.5 0C6.9375 0 0 6.9375 0 15.5C0 24.0625 6.9375 31 15.5 31C24.0625 31 31 24.0625 31 15.5C31 6.9375 24.0625 0 15.5 0ZM23.1 19.5688C23.3938 19.8625 23.3938 20.3375 23.1 20.6313L20.625 23.1C20.3313 23.3938 19.8562 23.3938 19.5625 23.1L15.5 19L11.4312 23.1C11.1375 23.3938 10.6625 23.3938 10.3687 23.1L7.9 20.625C7.60625 20.3313 7.60625 19.8562 7.9 19.5625L12 15.5L7.9 11.4312C7.60625 11.1375 7.60625 10.6625 7.9 10.3687L10.375 7.89375C10.6687 7.6 11.1438 7.6 11.4375 7.89375L15.5 12L19.5688 7.9C19.8625 7.60625 20.3375 7.60625 20.6313 7.9L23.1063 10.375C23.4 10.6687 23.4 11.1438 23.1063 11.4375L19 15.5L23.1 19.5688Z" fill="#F7F2EB"/>
</svg>
